<?xml version="1.0" ?><svg viewBox="0 0 512 512" xmlns="http://www.w3.org/2000/svg"><defs><style>.cls-1{fill:#8fea6a;}.cls-2{fill:#b4f993;}</style></defs><title/><g data-name="StPatrick's-Flat" id="StPatrick_s-Flat"><g id="Clover"><path class="cls-1" d="M357.0617,94.3377C360.7882,23.5356,219.4188-11.1718,256,195.3993,462.5492,231.9778,427.9039,90.6092,357.0617,94.3377Z"/><path class="cls-1" d="M268.536,288.2981c26.8147,62.17,29.9127,131.4409-9.9205,177.2431-17.4135,20.023-47.6582-6.3019-30.2554-26.3124,3.282-3.7742,53.1466-39.8272,24.0505-144.7287C249.2864,283.2272,264.4336,278.7589,268.536,288.2981Z"/><path class="cls-2" d="M154.9386,94.3374C84.1365,90.611,49.4291,231.98,256,195.399,292.5786-11.15,151.21,23.4952,154.9386,94.3374Z"/><path class="cls-1" d="M154.9383,296.4605C151.2118,367.2627,292.5812,401.97,256,195.399,49.4508,158.8205,84.0961,300.1891,154.9383,296.4605Z"/><path class="cls-2" d="M357.0614,296.4608C427.8635,300.1873,462.5709,158.818,256,195.3993,219.4214,401.9483,360.79,367.3031,357.0614,296.4608Z"/></g></g></svg>